PathFileType	4	(X/Y/Z)	Patient4_TMGait_0pt7_02_right_47.trc.trc
DataRate	CameraRate	NumFrames	NumMarkers	Units	OrigDataRate	OrigDataStartFrame	OrigNumFrames
90.322580645161	90.322580645161	4	33	mm	90.322580645161	124	       141
Frame#	Time	Sacral			L.Shoulder			Chest			R.Shoulder			Neck			R.ASIS			L.ASIS			R.Thigh.Superior			R.Thigh.Lateral			R.Thigh.Inferior			R.Patella			L.Thigh.Superior			L.Thigh.Lateral			L.Thigh.Inferior			L.Patella			L.Shank.Superior			L.Shank.Lateral			L.Shank.Inferior			R.Shank.Superior			R.Shank.Lateral			R.Shank.Inferior			R.Heel			R.Midfoot.Superior			R.Midfoot.Lateral			R.Toe			L.Heel			L.Midfoot.Lateral			L.Midfoot.Superior			L.Toe			L.Elbow			L.Wrist			R.Elbow			R.Wrist			
		X1	Y1	Z1	X2	Y2	Z2	X3	Y3	Z3	X4	Y4	Z4	X5	Y5	Z5	X6	Y6	Z6	X7	Y7	Z7	X8	Y8	Z8	X9	Y9	Z9	X10	Y10	Z10	X11	Y11	Z11	X12	Y12	Z12	X13	Y13	Z13	X14	Y14	Z14	X15	Y15	Z15	X16	Y16	Z16	X17	Y17	Z17	X18	Y18	Z18	X19	Y19	Z19	X20	Y20	Z20	X21	Y21	Z21	X22	Y22	Z22	X23	Y23	Z23	X24	Y24	Z24	X25	Y25	Z25	X26	Y26	Z26	X27	Y27	Z27	X28	Y28	Z28	X29	Y29	Z29	X30	Y30	Z30	X31	Y31	Z31	X32	Y32	Z32	X33	Y33	Z33	

124	54.601785714286	753.036903136459	992.539016847345	466.336844690656	951.616612182660	1424.556011737424	298.519996224719	1041.287819949738	1350.013006880155	465.250596877877	944.604062160900	1428.529427337876	631.178969719147	941.102662863759	1480.499120695272	451.075663619419	970.017364551593	929.723463854026	601.997045368932	978.620051281564	949.181961635264	328.204791905051	1048.996438948753	755.584116001083	577.141117584204	997.242914448071	632.302874772547	642.239027367015	1091.322657422209	599.349870034257	566.826970855212	1120.733213289991	513.105822695318	580.500640442008	985.811333515030	724.451846151932	355.170094039380	876.898643892849	628.070522785525	281.814028602449	933.425779251986	533.846306300138	349.830660592104	917.705197249294	463.468337478980	356.794806821413	878.767882628824	397.613231825897	344.413596932736	772.534010013668	302.794046574936	285.309019799252	795.539933891423	182.942989191150	355.037944058657	1101.367758176501	421.942389940666	589.518036623932	1041.298335168450	309.474918047198	648.617429578460	1107.316925054070	221.905058000495	597.151386039892	1006.027555439506	42.940322575332	566.054438549584	1171.286337163670	108.867426668163	606.565566995915	1089.939560078906	37.724501335467	638.840669211065	1294.058386184512	67.565926080092	631.276252023093	645.924658281956	38.104709730135	385.346974679382	722.380646494441	34.664811216765	307.458720797672	805.524767979467	94.665170119465	338.460490980373	934.659270456729	41.054969635774	311.567791482779	1012.756016354039	1103.428815232170	142.855026135057	1259.503225014713	1129.223590978293	191.551227073678	812.203709503628	1114.415985095148	757.033689960962	782.551048006170	854.697199079286	772.089966709883	
125	54.612857142857	754.597043351172	990.784791092963	469.905109232427	951.332510199802	1423.061220470751	301.409232152610	1042.179590062586	1348.813717087495	467.730081368779	945.978887577285	1427.252726980083	634.114095229512	941.570820487465	1479.052714306061	453.974595177937	972.402195009353	927.770594594632	604.473162456129	979.675723659780	947.729324384888	330.877173767928	1050.899480543752	752.847124285691	579.299668972449	997.113781043867	629.801216357677	642.691491402469	1091.149104740001	596.584130103879	567.553701658992	1118.872333103536	509.841819533403	579.886795325001	987.033804356641	722.705867495787	356.812984156998	877.358999868652	626.389840411634	284.376364951516	934.600097193628	531.810546070234	351.703868523961	918.932561582116	460.545145350052	358.234446732188	877.833881868729	395.437388731851	346.025136624038	769.349979446593	303.172649191432	286.779266947511	790.059100611742	182.454836803202	355.586104768164	1099.225868442051	418.381721625267	588.845358608050	1038.406878507340	306.363049230663	647.965218730772	1102.876880385870	218.384691189396	595.459098050958	998.621925339316	41.824510478974	564.499721139218	1164.924009312604	105.269921802027	604.293170416118	1082.329988949427	36.441397909668	637.551524686450	1287.044463929959	62.395537100056	629.377883600135	638.196198609113	39.384580327435	385.222592440046	714.675684454285	35.270900541387	307.468321867199	798.326971334764	94.688627373118	338.430970318197	926.976569846297	40.690315831603	311.408337403133	1014.064910803602	1102.552502287344	145.159451814473	1259.391167503786	1135.530802512735	195.182541898277	807.528455393529	1116.594909924119	759.990567420120	772.875453547309	857.544883343457	773.518505225231	
126	54.623928571429	755.884404867995	989.346908372285	473.453032990752	951.296766837939	1421.725563055723	304.360290529103	1043.176567174530	1347.709806885790	470.329235024764	947.505268762816	1426.146136319571	637.114328330907	942.308613680329	1477.833092216359	456.973809498218	974.580735771396	926.186087735293	607.052029579565	980.500363127420	946.530774219278	333.487396682140	1052.930058423765	750.917346787436	581.327236201135	997.603953943166	628.125741964769	643.279578676438	1091.496545714549	594.668434806697	568.312631445067	1117.749862975581	507.313475537195	579.447718196200	988.559429062805	721.286809482272	358.693464550971	878.590367964594	624.650321027313	287.191876145702	936.947370556232	529.888732193704	353.859013457900	921.513590279132	457.556615701346	359.810050633187	877.962680972897	393.268826075370	347.791587387159	767.014972190983	303.967523317044	288.435426176933	785.164695088270	182.332738001707	356.193056984482	1097.571043553818	415.525801620944	588.312670903956	1035.878154712443	304.156997310033	647.775962385420	1098.319452387377	215.528893240495	594.028505328884	990.549490267990	41.301477968601	563.382165617734	1157.949460858635	102.357094447482	602.407710448337	1074.092031377473	35.757852407979	636.678613454120	1279.435541226759	57.916421580207	627.866124865741	630.634447793875	41.705398403549	385.093453916592	707.075862225385	36.492881870010	307.492504658114	791.470644674683	94.899391524626	338.381553949535	919.249409099609	40.196053813363	311.286106039619	1014.582268902583	1101.382183354626	147.811143852614	1258.617152728470	1140.404181845475	198.717739616215	803.758384441397	1118.564661935368	762.906037049034	764.640911559034	860.096580144828	774.902435690862	
127	54.635000000000	756.874688184350	988.292553386048	476.944424432953	951.539606471264	1420.629564484156	307.349600591837	1044.256796668550	1346.739751149423	473.019314329928	949.182825515906	1425.261061586870	640.145686018344	943.325022021509	1476.899003713923	460.039146260484	976.509314843162	925.041756734056	609.721567571700	981.018778619877	945.620603685201	336.023008731821	1054.950601007907	749.790494115593	583.211726438819	998.594717814835	627.258776837621	644.102540508482	1092.190641709237	593.528133976555	569.165055017662	1117.186346591203	505.485325891173	579.334263365517	990.361386136521	720.285644488432	360.810730627060	880.657407070409	622.912091738531	290.202024230921	940.540790494417	528.176305288514	356.251644233665	925.504878261389	454.614802255332	361.460024192984	879.258487022194	391.199726798018	349.654128738507	765.650723220553	305.285238314262	290.246213798993	780.988856885618	182.714701107857	356.855430230720	1096.273991201990	413.367786540016	588.051619187109	1033.633574467019	302.788569501215	648.098197954622	1093.724400485854	213.347938826304	592.976480050164	982.191007621766	41.200819581662	562.714264589888	1150.613231717647	100.196026649097	600.985076486564	1065.615767667003	35.527821702955	636.213998387612	1271.553525304602	54.337443142896	626.783706618054	623.350276862687	45.342776920534	384.999413217392	699.647860082356	38.529732902082	307.557373033567	785.061491658920	95.379797382300	338.326354313704	911.470618320985	39.546977674656	311.231080422675	1014.233839236561	1099.976099506895	150.823566877511	1257.221553759046	1143.803479294560	202.155414428513	800.994591631166	1120.247786747002	765.717674491918	757.969951817069	862.266420973697	776.247833864195	
